<?xml version="1.0" encoding="UTF-8"?>
<svg id="Text" xmlns="http://www.w3.org/2000/svg" viewBox="0 0 149.562 149.4918">
  <circle cx="107.5198" cy="38.107" r="12.5776" style="fill: #792776; stroke: #822883; stroke-miterlimit: 10;"/>
  <path d="M126.9711.1452s-33.7579-3.7377-54.0991,26.7148c-19.892,29.7829-54.5907,114.5209-54.5907,114.5209,0,0,2.8393,13.3065,16.5781,6.755,2.0765-3.1614,17.9257-43.2674,17.9257-43.2674,0,0,1.1018-1.1018,1.9324,0s21.2226,43.2844,21.2226,43.2844c0,0,13.9846,5.6955,15.0271-8.4077-3.1698-5.6532-22.3414-46.9966-22.3414-46.9966,0,0-.7458-1.373.6357-1.568,1.3815-.1949,36.7074-6.0176,36.7074-6.0176,0,0,6.0176-3.4495,3.5512-8.7806s-4.9836-18.6715-26.5961-39.445c0,0,12.9421-22.4601,44.0472-23.1296,5.7718.339,8.5857-11.247,0-13.6456v-.0169ZM79.3811,75.6704c-1.0086,0-1.3137-1.1442-.7628-1.8392l6.1447-11.586c.534-1.034,1.1527-1.1442,1.6866-.5679,0,0,5.4158,8.6535,6.0346,10.6113.1949.6102-.2288,1.1103-.7543,1.3222" style="fill: #792776; stroke-width: 0px;"/>
</svg>